<svg width="16" height="12" viewBox="0 0 16 12" fill="none" xmlns="http://www.w3.org/2000/svg">
<path d="M4.5 0.5C4.5 0.223858 4.27614 0 4 0C3.72386 0 3.5 0.223858 3.5 0.5H4.5ZM3.64645 11.8536C3.84171 12.0488 4.15829 12.0488 4.35355 11.8536L7.53553 8.67157C7.7308 8.47631 7.7308 8.15973 7.53553 7.96447C7.34027 7.7692 7.02369 7.7692 6.82843 7.96447L4 10.7929L1.17157 7.96447C0.976311 7.7692 0.659728 7.7692 0.464466 7.96447C0.269204 8.15973 0.269204 8.47631 0.464466 8.67157L3.64645 11.8536ZM3.5 0.5V11.5H4.5V0.5H3.5Z" fill="white"/>
<path d="M11.8536 0.146447C11.6583 -0.0488155 11.3417 -0.0488155 11.1464 0.146447L7.96447 3.32843C7.7692 3.52369 7.7692 3.84027 7.96447 4.03553C8.15973 4.2308 8.47631 4.2308 8.67157 4.03553L11.5 1.20711L14.3284 4.03553C14.5237 4.2308 14.8403 4.2308 15.0355 4.03553C15.2308 3.84027 15.2308 3.52369 15.0355 3.32843L11.8536 0.146447ZM11 11.5C11 11.7761 11.2239 12 11.5 12C11.7761 12 12 11.7761 12 11.5H11ZM11 0.5V11.5H12V0.5H11Z" fill="white"/>
</svg>
